<?xml version="1.0" encoding="UTF-8"?>
<svg id="Layer_1" xmlns="http://www.w3.org/2000/svg" version="1.1" viewBox="0 0 478.47 552.5">
  <!-- Generator: Adobe Illustrator 30.3.0, SVG Export Plug-In . SVG Version: 2.1.3 Build 182)  -->
  <defs>
    <style>
      .st0 {
        fill: #231f20;
      }

      .st1 {
        fill: #242021;
      }

      .st2, .st3, .st4 {
        isolation: isolate;
      }

      .st5, .st3, .st4 {
        fill: #fff;
      }

      .st6 {
        fill: #39b54a;
      }

      .st3 {
        font-family: AvenirNext-UltraLight, 'Avenir Next';
        font-size: 66.13px;
        font-weight: 100;
        letter-spacing: -.1em;
      }

      .st4 {
        font-family: AvenirNext-Bold, 'Avenir Next';
        font-size: 87.73px;
        font-weight: 700;
        letter-spacing: -.05em;
      }
    </style>
  </defs>
  <polygon class="st1" points="0 310.98 0 414.37 239.24 552.5 478.47 414.37 478.47 310.98 0 310.98"/>
  <polygon class="st6" points="478.47 244.79 478.47 138.12 239.24 0 0 138.12 0 244.79 478.47 244.79"/>
  <rect class="st5" y="244.79" width="478.47" height="66.18"/>
  <g>
    <path class="st0" d="M76.06,262.24h7.99l15.09,21.2-.14-21.2h7.65v31.28h-8.74l-14.48-20.31v20.31h-7.39v-31.28h.02Z"/>
    <path class="st0" d="M269.67,262.24h7.99l15.09,21.2-.14-21.2h7.65v31.28h-8.74l-14.48-20.31v20.31h-7.39v-31.28h.02Z"/>
    <path class="st0" d="M151.01,261.05h11.11c2.69,0,5.25.3,7.67.9s4.53,1.57,6.34,2.92c1.8,1.35,3.24,3.09,4.3,5.25,1.06,2.15,1.59,4.76,1.59,7.83,0,2.72-.51,5.12-1.54,7.19s-2.41,3.81-4.15,5.22c-1.74,1.41-3.75,2.48-6.03,3.2-2.28.73-4.67,1.09-7.17,1.09h-12.11v-33.61h-.01Z"/>
    <path class="st0" d="M186.31,261.65h23.37v6.59h-16.23v6.04h14.87v6.59h-14.87v6.59h16.23v6.59h-23.37v-32.41h0Z"/>
    <path class="st0" d="M345.28,261.68h23.37v6.59h-16.23v6.04h14.87v6.59h-14.87v6.59h16.23v6.59h-23.37v-32.41h0Z"/>
    <path class="st0" d="M307.29,261.68h23.37v6.59h-16.23v6.04h14.87v6.59h-14.87v13.18h-7.14v-32.41h0Z"/>
    <path class="st0" d="M237.7,269.74c-.72-.88-2-1.62-3.26-1.97-1.11-.31-2.38-.63-3.76-.63s-2.65.27-3.82.8-2.19,1.28-3.05,2.24-1.53,2.1-2.02,3.42-.73,2.75-.73,4.29.24,3.01.73,4.31c.48,1.3,1.15,2.44,1.99,3.39.84.96,1.84,1.7,2.98,2.24,1.14.53,2.56.97,3.87.97,1.5,0,2.73-.2,3.96-.8,1.18-.58,1.88-1.04,2.89-1.87l4.88,5.15c-1.83,1.73-2.16,1.79-4.31,2.73-2.16.94-4.38,1.41-6.66,1.41-2.6,0-4.99-.41-7.17-1.23-2.19-.82-4.08-1.99-5.67-3.51-1.59-1.52-2.84-3.37-3.73-5.54s-1.34-4.59-1.34-7.26.45-5.09,1.34-7.26,2.13-4.01,3.73-5.54c1.59-1.52,3.49-2.69,5.67-3.51,2.19-.82,4.58-1.22,7.17-1.22.94,0,1.91.09,2.93.26,1.02.17,2.02.45,3,.83.98.38,1.93.88,2.84,1.51s1.46,1.18,2.19,2l-4.65,4.79h0Z"/>
    <path class="st0" d="M401.04,281.07c0,1.86-.28,3.56-.84,5.13-.56,1.56-1.39,2.92-2.5,4.06s-2.48,2.05-4.13,2.69c-1.65.65-3.55.97-5.7.97s-4.09-.32-5.74-.97-3.03-1.55-4.13-2.69-1.94-2.5-2.5-4.06-.84-3.27-.84-5.13v-19.22h6.89v18.95c0,.97.15,1.87.46,2.69.31.83.74,1.54,1.3,2.14s1.23,1.08,2.01,1.41c.78.34,1.63.51,2.54.51s1.75-.17,2.52-.51,1.43-.81,1.99-1.41.99-1.32,1.3-2.14.46-1.72.46-2.69v-18.95h6.89v19.22h.02Z"/>
    <circle class="st0" cx="128.67" cy="277.88" r="17.53"/>
    <circle class="st0" cx="252.78" cy="277.88" r="10.49"/>
  </g>
  <g class="st2">
    <text class="st3" transform="translate(133.12 461.41)"><tspan x="0" y="0">Bologna</tspan></text>
  </g>
  <g class="st2">
    <text class="st4" transform="translate(132.45 394.75)"><tspan x="0" y="0">2026</tspan></text>
  </g>
  <polygon class="st0" points="232.77 244.78 207.09 119.92 193.83 116.89 168.05 120.71 192.94 244.78 232.77 244.78"/>
  <polygon class="st0" points="218.02 198.4 218.02 244.78 260.29 244.78 260.29 198.62 256.02 198.62 256.3 59.29 260.29 53.37 260.29 39.61 246.63 36.6 246.63 28.05 244.21 28.05 243.93 23.12 239.94 18.18 239.15 2.89 238.23 18.02 233.4 23.12 233.4 27.89 231.12 27.89 231.12 36.27 218.08 39.61 218.02 53.16 221.73 59.26 221.73 198.4 218.02 198.4"/>
  <path class="st0" d="M307.16,133.94l.55.69v.62l1.65,1.38-.48,1.03,1.24.96v1.72l1.38.89-1.02.89v6.2s4.19,2.55,5.91,4.89,2.96,8.54,2.96,8.54l1.03.83-.96,1.51-.28,6.75,16.66,5.37s2.41.62,2.75,1.86-.89,1.03-.96,1.51-.48,17.62-.48,17.62l5.64,1.79s-1.38.34-1.72,1.03-.28,3.03-.28,3.03l11.07,4.35-1.04,2.31,2.2,1.5,12.32,1.79v-3.41l-1.91-1.33,4.8-4.34,15.16.29,2.08,3.65-1.85,1.33v35.59h-62.69s-60.61-.01-60.61-.01v-31.82l3.18-2.66.58-19.67-.98-1.16,1.1-.12-.12-2.26h1.22l5.03-11.92,4.69,11.92.93-.46.17-5.61s.12-.69-.12-.69-.69-.12-.81-.69,2.08-3.36,6.65-3.59,8.68-2.26,8.68-2.26l.06-4.69,3.03-1.08.44-4.3-1.22-1.79,1.1-.81s.17-4.98,2.84-8.1,5.67-4.8,5.67-4.8v-6.54l-.41-.64,1.22-.58.06-1.97.93-.87-.41-1.04,1.91-1.74.52-.91.35-3.2.59,3.2Z"/>
  <polyline class="st0" points="101.33 217.35 106.53 217.35 106.53 213.39 118.56 207.19 118.56 198.76 132.81 191.07 132.81 179.38 146.59 173.59 146.59 172.48 147.5 171.55 148.49 172.32 148.49 173.43 162.7 180 162.7 191.04 176.85 199.12 176.92 207.69 188.97 213.3 188.97 221.64 192.9 221.64 192.9 244.78 101.03 244.78"/>
</svg>